# xmcd
#
# Track frame offsets:
#	150
#	10185
#	25282
#	37617
#	50415
#	62195
#	73050
#	85940
#	97712
#	106290
#	119447
#	130442
#
# Disc length: 1874 seconds
#
# Revision: 2
# Processed by: cddbd v1.4PL0 Copyright (c) Steve Scherf et al.
# Submitted via: dBpowerAMP V4.0
#
DISCID=9707500c
DTITLE=Benny Goodman and Orchestra - All Of Me
DYEAR=1900
DGENRE=Big Band
TTITLE0=In The Mood
TTITLE1=The Yam
TTITLE2=Moten Swing
TTITLE3=Begin The Beguine
TTITLE4=Blue Hawaii
TTITLE5=All Of Me
TTITLE6=Hartford Stomp
TTITLE7=Trees
TTITLE8=Clap Hands, Here Comes Charlie
TTITLE9=Sly Mongoose
TTITLE10=Hot Foot Shuffle
TTITLE11=Hold Tight
EXTD=
EXTT0=
EXTT1=
EXTT2=
EXTT3=
EXTT4=
EXTT5=
EXTT6=
EXTT7=
EXTT8=
EXTT9=
EXTT10=
EXTT11=
PLAYORDER=
